<svg id="SvgjsSvg1001" width="288" height="288" xmlns="http://www.w3.org/2000/svg" version="1.1" xmlns:xlink="http://www.w3.org/1999/xlink" xmlns:svgjs="http://svgjs.com/svgjs"><defs id="SvgjsDefs1002"></defs><g id="SvgjsG1008" transform="matrix(0.9167,0,0,0.9167,11.993550173742705,11.990142145919805)"><svg xmlns="http://www.w3.org/2000/svg" viewBox="0 0 165.08 119.43" width="288" height="288"><g data-name="Layer 2" fill="#66ccff" class="color000 svgShape"><path fill="#155a7c" d="M114.08 14.82c1.91.16 3 1.35 4.6 2.25a8.42 8.42 0 002.62 1 6.59 6.59 0 001.91 2.23c.05 0 .12 0 .07-.07-.29-.37-.59-.72-.89-1.08a2.94 2.94 0 01-.48-.81 53 53 0 004.67 3.31 2.76 2.76 0 01-.61-.06 11 11 0 01-2.36-1c-.07 0-.13.07-.06.11a17.4 17.4 0 002.74 1.51 2.26 2.26 0 001.36 0 2.62 2.62 0 01-.85.48 3.84 3.84 0 01-2.13-.19v.06a2.8 2.8 0 003.48-.25h.06a3.74 3.74 0 01-1.47 1.38c-.08 0 0 .18.06.14a4.94 4.94 0 002.13-1.83 1.2 1.2 0 00.42-.41c.68-.57 1-1.69 1.64-2.37h.15a4.07 4.07 0 01-.06 1l-.2-.15a.27.27 0 00-.39.16 9.55 9.55 0 01-2.93 4.26c-.08.06 0 .2.11.14a9 9 0 003.2-3.9l.25.19c.15.11.35 0 .4-.16a4.12 4.12 0 00.14-.52 3.17 3.17 0 010 1.11l-.48-.1a.21.21 0 00-.23.09c-.19.26-.09.29-.16.7s-.27.75-.36 1.13a.08.08 0 00.15 0c.14-.38.34-.73.48-1.1.08-.19 0-.48.19-.37a4.9 4.9 0 00.55.21.28.28 0 00.34-.19 3.6 3.6 0 000-2c.44.82.76 1.79.14 2.48a.09.09 0 00.13.13c.91-.81.61-2 .12-3a6.59 6.59 0 01.76.79c.06.08.17 0 .13-.1a7 7 0 00-.69-1.12l-.17-.23a2.72 2.72 0 001-1.1 6.15 6.15 0 002.6.9l.87.19-.35.05a4.37 4.37 0 00-1.28.31c-.61.32-1.26.95-1.92.2 0-.05-.14 0-.1.08.48.71 1 .72 1.74.41a7.74 7.74 0 012.59-.31 28.1 28.1 0 01-4.71 2.3c-.11 0-.09.22 0 .21 3.69-.42 6.77-3.07 10.58-2.88a.14.14 0 00.07-.26 5.28 5.28 0 00-3.64-.31c-2-.5-4.66.17-6.48-1a3.21 3.21 0 00.21-1.88c-.36-1.91-2.23-3.33-3.58-4.56-.07-.07-.2 0-.14.11a33.91 33.91 0 012.15 3.46 3.37 3.37 0 01.49 2 1.27 1.27 0 01-.35.67.77.77 0 01-1.16-.48c0-.06-.12 0-.1 0a1 1 0 00.93.75l-.26.17c-1.07-.09-1.54-2.35-2.1-3-1.14-1.39-3.68.42-5.08 0-.06 0-.08.07 0 .1a3.71 3.71 0 002.64-.08c1.76-.51 2.37.26 3 1.66a4.16 4.16 0 001.16 1.64l-.28.19h-.11c-1-.33-1.8-2.33-3.31-2.19-2.24.21-4.13 1.11-6.23 1a19.49 19.49 0 01-3.68-1.49 6.23 6.23 0 00-3.68-1 .1.1 0 00.03.29zm9.33 3.55l-.52-.33h.11c.11.1.26.21.41.33zm6.61.56c-.85.91-1.33 2.28-2.81 1.5-1.12-.59-1.94-1.8-3-2.49a17.64 17.64 0 002.39-.53c1.77-.51 2.48.87 3.4 1.52zM111.28 15a.15.15 0 00.23 0c.23-.26.49-.59.88-.54a3.26 3.26 0 01.53.22 1.18 1.18 0 00.92 0v-.07c-.54-.07-.94-.37-1.45-.47s-.69.23-.94.5a2.91 2.91 0 00-1.16-1.22c-.06 0-.13 0-.08.1a4.43 4.43 0 011.07 1.48zM108 12.71a13 13 0 011.42.34c.08 0 .14-.11.06-.14a5.73 5.73 0 00-1.44-.34c-.12-.02-.16.12-.04.14zM106.1 11.89a8.26 8.26 0 01-2.83-1.13s-.09 0 0 .08a7.87 7.87 0 002.83 1.21c.06.02.1-.14 0-.16zM106.76 12.28s-.06 0 0 0a.71.71 0 00.42.19c.06 0 .08-.08 0-.09a.8.8 0 01-.42-.1zM127.07 24.78c-3.43 1.26-6.18-3.56-8.32-5.41a9.27 9.27 0 00-5.75-2.26.11.11 0 000 .22c3.64.75 5.78 3.43 8.08 6.09a8.69 8.69 0 002.5 2.14l-.06.05c-.29.55-.64 1.09-1.32 1.16a.11.11 0 000 .22 1.92 1.92 0 001.68-1.17.19.19 0 000-.12 3.43 3.43 0 00.62.18c-.26.29-.46.64-.7.94a.08.08 0 00.12.12 7.3 7.3 0 00.94-1 3 3 0 00.55 0 3 3 0 01-.28.4.09.09 0 00.13.13 1.61 1.61 0 00.51-.59 4.08 4.08 0 001.48-.72c.13-.16.04-.46-.18-.38zM119.69 27.51a.12.12 0 00-.06-.24 16.34 16.34 0 00-4.93 1.65 2.71 2.71 0 01-2.73-1.12.14.14 0 00-.15 0 9.88 9.88 0 00-1 .38c-.09 0-.13-.36-.18-.46s-.26 0-.21.09c.14.36-.11.45.18.73a.13.13 0 00.16 0c.39-.29.94-.56 1.3-.16a4.21 4.21 0 00.79.68 1.93 1.93 0 001.19.29c-.22.14-.43.29-.64.44a2.22 2.22 0 01-1.71-.32 2.48 2.48 0 00-1.16-.39c-1 0-2 1.73-2.36-.37a.14.14 0 00-.21-.09 3 3 0 01-2.75.56c-.08 0-.11.09 0 .12a2.49 2.49 0 001.43.16c.16 0 1.28-.67 1.37-.14.06.35.31 1 .78.9a2.52 2.52 0 00.9-.42 1.73 1.73 0 012.12.15 2 2 0 001 .31l-.07.06a2 2 0 01-2.1-.1.24.24 0 00-.29 0c-.41.33-.79.69-1.2 1-1 .83-1.75.47-2.41-.56 0-.08-.17 0-.12.07.67 1.1 1.35 1.71 2.56 1a6.41 6.41 0 00.74-.57c.6-.49.55-.31 1.25-.15a2.33 2.33 0 00.77 0c-.21.23-.41.47-.6.71a.11.11 0 00-.08 0 7.24 7.24 0 01-1.27 1.46v-.29a.15.15 0 00-.28-.08 1.5 1.5 0 01-2.83-.12c0-.05-.12 0-.1 0a1.62 1.62 0 002.89.55v.27a.18.18 0 00.26.15l.3-.23q-.3.54-.58 1.09a2.91 2.91 0 00-.66.48 2.27 2.27 0 00-.23-.33c-.07-.09-.2 0-.23.06-.13.39-.28.87-.77.76a2.65 2.65 0 00-.59-.09v.06c.31 0 .6.24.91.21s.46-.32.59-.58c0 .08 0 0 .12 0a.19.19 0 00.05.37.81.81 0 00.46-.16 23.54 23.54 0 01-2.35 4.08c-.07.09 0 .21.12.12a48.73 48.73 0 003.92-6.31c2-3.29 5.32-4.29 8.69-5.68zM114.06 24.35a.31.31 0 00.39.3c1.61-.58-.32.91-.68 1.35-.11.14.07.33.2.2.69-.72 1.56-1 1.74-2 0-.13-.06-.3-.22-.28l-.71.09c1.1-4.57-6-3.91-8.2-6.09a.13.13 0 00-.19.19c2.27 2.33 7.96 2.01 7.67 6.24zM114.12 26.39a.08.08 0 000 .16h.25a.09.09 0 000-.17z" class="color7c1531 svgShape"></path><path fill="#155a7c" d="M112.63 24.88c0 .11.24.11.23 0-.1-1.1-1.21-2.33-2.38-1.93a.05.05 0 000 .1c1.26-.05 1.73.81 2.15 1.83zM110.43 24.71a5.92 5.92 0 011 .64c.16.11.31-.15.15-.26a4.55 4.55 0 00-1-.62c-.19-.05-.29.18-.15.24zM152.41 34.12c-5.2-.31-8.4-4.59-11.85-7.79-2.62-2.43-4.52.33-7.37-.47a.11.11 0 00-.06.21c2.28.75 4.63-1 6.86.82 1.57 1.26 2.76 3.08 4.14 4.53a12.08 12.08 0 008.3 2.89c.12-.01.08-.18-.02-.19zM153.49 34.37a.1.1 0 000 .2.1.1 0 000-.2zM139.43 23.07c-.08 0-.12.1 0 .13 3 1.09 6.6-.9 9.32.48 1.81.92 2.54 2.7 4.65 3.22a.19.19 0 00.1-.37c-2-.67-3.12-3-5.13-3.46-3.01-.72-5.88.93-8.94 0zM153.85 27.5c.32-.05.63 0 .94-.1.1.76.32 1.53 1.16 1.73a.15.15 0 00.08-.29c-.75-.21-.9-.92-1-1.6 0-.08-.08-.17-.17-.13a5.86 5.86 0 01-1.08.19c-.13.01-.06.22.07.2zM109.76 42.66a4.63 4.63 0 00-.58 3.7c0 .08.12 0 .11 0a5.28 5.28 0 01.67-3.55.12.12 0 00-.2-.15zM110.77 43.62a2.18 2.18 0 00-.54.94c-.06.18.22.25.28.08a2.63 2.63 0 01.46-.81c.12-.15-.07-.34-.2-.21zM113.2 41.43A4.29 4.29 0 00113 43a.14.14 0 00.28 0 8 8 0 01.28-1.45c.04-.25-.29-.34-.36-.12zM122.8 51c-2.28-1.71-4.4-3.43-6.5-5.34-.08-.07-.2 0-.12.12 2.1 2 4.09 3.73 6.38 5.54s4.76 2.71 7.12 4.18c.14.09.27-.13.13-.22-2.34-1.47-4.81-2.61-7.01-4.28zM130.26 55.86s-.07 0 0 .06a2.38 2.38 0 01.4.42s.11 0 .07-.07a2.51 2.51 0 00-.47-.41zM131.16 56.59a2.62 2.62 0 01-.23.29v-.08c0-.1-.17-.11-.16 0a.43.43 0 00.09.29.09.09 0 00.14 0 1.38 1.38 0 00.35-.43.09.09 0 00-.19-.07zM131.68 56.78l.15.21c0 .1.2.05.16 0a.62.62 0 00-.19-.29c-.07-.12-.19 0-.12.08zM132.61 57.68a.13.13 0 00-.1.24 1 1 0 01.43.55c.08.17.31 0 .28-.12a.8.8 0 00-.61-.67zM133.51 29.69v.05c4.82 2.83 9.37 6.09 14.32 8.68.06 0 .11-.06.05-.09-5.02-2.52-9.45-5.97-14.37-8.64z" class="color7c1531 svgShape"></path><path fill="#155a7c" d="M165.07 24.1a2.42 2.42 0 0 0-1.51-2 5 5 0 0 0-1.88-.32c-2.54-.52-5-1.06-7.48-1.82a12.9 12.9 0 0 0-1.72-1.24c-3.92-2.33-9.39-1.43-13.9-2.13-2.67-1.55-3.33-4.52-5.77-6.35-1.48-1.11-3.41-.93-5.31-.58-.25-.82-1.15-1-2.27-.83a11.52 11.52 0 0 0-6.39-1.27h-.58c-1.63-.47-3.3-1-5-1.36a.26.26 0 0 0-.07-.19c-3.17-3.41-5.75-4.07-9.9-2.1C94.75 8 85.42 7.44 78.64.24a.19.19 0 0 0-.21 0l-.1-.24a.1.1 0 0 0-.18.08c.39 2 1.08 5.82 2.79 7.93-2-.05-4.12 1-6 1.13a16.61 16.61 0 0 1-3.6-.09c-.74-.16-1.51-.29-2.28-.42A27.15 27.15 0 0 1 64.3 7a6 6 0 0 1-.54-.43.19.19 0 0 0-.29 0l-.78-.38a.13.13 0 0 0-.13.22l.48.32c.86 1.57 1.32 3.09 2.65 4.34A15.21 15.21 0 0 0 68.15 13c-.87.22-1.77.58-2.72.77h-.06a49.24 49.24 0 0 1-7.06.73 52.13 52.13 0 0 1-9-1.38 38.64 38.64 0 0 0-2.87-3 .15.15 0 0 0-.21.21c1 1.16 1.78 2.36 2.63 3.54a12.37 12.37 0 0 0 2.92 4 10.67 10.67 0 0 0 1.73 1.41 13.65 13.65 0 0 0-2.81 1.4c-2.71 1.63-5.86 1.76-8.93 1.82-2.77.01-4.77-.5-6.69-2.83a5.15 5.15 0 0 0-2.66-1.73c-.17-.06-.3.23-.13.3 1.79.76 2.35 2.36 3.43 3.56.68 2.1 2.78 4.12 5 5.31a23.19 23.19 0 0 1-5.71 2.51 29.72 29.72 0 0 1-6.32-.2c-2.92-.27-6.15.41-8.32-2-.12-.13-.29.06-.19.19a6.89 6.89 0 0 0 3.41 2.33c2.17 1.72 4.41 3.78 6.87 5.06a5.79 5.79 0 0 0-2.35.87c-2.86 1.42-5.84 1.39-8.94 1.49-4.86.15-9 .33-12-4.32a.09.09 0 0 0-.17.06 10.41 10.41 0 0 0 4.08 4.55 37.45 37.45 0 0 0 5.71 5 11.79 11.79 0 0 1-2 1.87 28.14 28.14 0 0 1-2.47 1.55.32.32 0 0 0-.26-.07c-2.27.29-4.56 1.5-6.83 1.28a12.59 12.59 0 0 0-5.09-1.2.16.16 0 0 0 0 .33 8.89 8.89 0 0 1 3.36.78 4.44 4.44 0 0 0 1.21.64 23.12 23.12 0 0 1 2.15 1.53 8 8 0 0 0 1.52 1.18c.38.28.77.56 1.18.83a36.05 36.05 0 0 0 3.89 2.06 14.46 14.46 0 0 0 3.06 1.27c-.08.16-.16.32-.24.47a12.92 12.92 0 0 1-1.46 2.11 7.07 7.07 0 0 1-4.45 2.58c-.16 0-.12.29 0 .28a8.07 8.07 0 0 0 3.95-1.39 9.6 9.6 0 0 1 2.33-.37 8.31 8.31 0 0 1 1.46 0h.23c-.33 1.11 0 2.44-.2 3.71a8.76 8.76 0 0 1-4.74 6.39.24.24 0 0 0-.13.24 5.15 5.15 0 0 1-3.44.48.15.15 0 0 0-.08.28c2.6.74 4.82-.38 7.14-1.56 2.49-1.26 5.05-.81 7.47.31a4.69 4.69 0 0 0 2.69.64c-.52 2.87-1 6.31-2.46 8.94l-.32.52a.44.44 0 0 0 0 .08l-.22.34a16.29 16.29 0 0 0-1.2 1.27.2.2 0 0 0 0 .14 6.76 6.76 0 0 1-3.59 1.68c-.08 0-.07.13 0 .15a4.32 4.32 0 0 0 3-.45.33.33 0 0 0 .25 0c1.18-.56 2.2-1.35 3.33-2 1.69-1 3.83-.7 5.68-.56a8.5 8.5 0 0 0 4.79-.78 40.2 40.2 0 0 0-.09 4.1c0 3.36-1.46 7.28-4.54 9-.16.09-.05.38.13.31a8.93 8.93 0 0 0 3.41-2.24.26.26 0 0 0 .12 0c3.55-1.26 7.1-.87 10.84-.87a10.74 10.74 0 0 0 2.44-.24 12.9 12.9 0 0 0 .08 2.58c.28 2.79.26 5.53-1.06 7.78a10.84 10.84 0 0 0-1.42 1.66.19.19 0 0 0 0 .1 8.34 8.34 0 0 1-.68.56.15.15 0 0 0 .15.26 6.42 6.42 0 0 0 2.61-2 6.83 6.83 0 0 1 7.59.16 6 6 0 0 0 2.35.94 20.16 20.16 0 0 0-.31 3.6 8.86 8.86 0 0 0 1.82 4.93c2 2.51 4 3.68 5.24 7a.22.22 0 0 0 .11.12c.05.17.11.34.15.52a.11.11 0 0 0 .17.06c0 .25.06.49.1.74a.07.07 0 0 0-.07-.07.07.07 0 0 0 0 .14.07.07 0 0 0 .07-.07 18.89 18.89 0 0 0 .39 2 .22.22 0 0 0 .42-.12c-1.11-5.34.69-14.26 6.05-16.8a19.91 19.91 0 0 0 2.69 4.65.34.34 0 0 0 .18.12 7 7 0 0 1 .87 2.67.29.29 0 0 0 .57 0 7 7 0 0 0-.79-3.49v-1.13c.16-1 .25-1.93.36-2.89A21.24 21.24 0 0 1 81.9 92a18.4 18.4 0 0 0 4.72 5.76.35.35 0 0 0 .31.08l.1.14c.23.29.61-.08.47-.37a24.7 24.7 0 0 1-1.29-3.34A13.81 13.81 0 0 1 88.54 85c.84-1.31 1.88-2.44 2.6-3.77a14.72 14.72 0 0 0 2 4.4 10.93 10.93 0 0 0 2 2.79c.09.1.23 0 .17-.13-.24-.49-.5-1-.75-1.46a.17.17 0 0 0 .07-.15c0-.68-.09-1.35-.13-2 .43-3.33.58-6.53 2.09-9.73.89-1.88 2.23-2.67 3.68-4l.19-.18a5.44 5.44 0 0 0 .64.82c.23.7.46 1.42.68 2.19a.23.23 0 0 0 .13.15 6 6 0 0 0 .46 1c.11.19.36.05.33-.14a9.68 9.68 0 0 1-.1-2.19c.73-3.61 4.1-7.2 6.37-9.64a20.23 20.23 0 0 1 7.73-5 13.29 13.29 0 0 0 2.18-.06 6.52 6.52 0 0 1 2.34.13 5.25 5.25 0 0 1 2.53 3.26c1 3.38-2.16 5.85-5.22 5.8-.19 0-.24.31 0 .33 2.67.39 5.11-.47 6.34-2.47a2.08 2.08 0 0 1 1.89 0 5.53 5.53 0 0 0 2.51.56c1.4-.21 1.36-2 2.54-2.21-.62 1.53-1.2 3.57-3.17 3.28-1.16-.64-2.06-1.05-3.38-.05a.13.13 0 0 0 .14.23c2.06-1.1 2.55 1 3.75 1.64a5.33 5.33 0 0 0 2.8.73c2.47 0 2.32-2.57 4.05-3.46.58 0 1.28.2 1.82.11.78-.13 1.17-.92 1.41-1.59a9.34 9.34 0 0 0 .12-1.79c.1-.65.75-.84 1.19-1.17a1.42 1.42 0 0 0 .59-1l.06-.07a1.57 1.57 0 0 0 .1-.16.26.26 0 0 0 .13-.08 2.33 2.33 0 0 0-.15-2.57 10.19 10.19 0 0 0 1.41-3c.49-1.17 1.78-3.67 1.27-5l.08-.13a.18.18 0 0 0-.31-.18c-1.66 2.42-4.27 3.64-6.48 5.43 0-1.31-.42-2.62-.48-3.92a.14.14 0 0 0-.11-.12l.06-.07c.07-.09-.08-.2-.16-.12-1.21 1.28-2.88 1.6-4.33 2.42a6.31 6.31 0 0 0 .22-1.72 12 12 0 0 0-.46-4.28.14.14 0 0 0-.05-.19 1.58 1.58 0 0 1 0-.48.07.07 0 0 0-.14 0 2.41 2.41 0 0 0-.13.53.15.15 0 0 0-.07.16c-1.16 1.48-3 1.81-4.68 2.55a14.6 14.6 0 0 0 0-4.28.09.09 0 0 0 0-.07c0-.6-.17-1.19-.18-1.79a1.81 1.81 0 0 0 0-.24c0-.07-.12-.09-.13 0-.09.58-.68.93-1 1.39a19.77 19.77 0 0 1-2.67 2.16 9.07 9.07 0 0 0-.21-2.15c-.18-1.17-.46-2.35-.72-3.51a.13.13 0 0 0-.13-.1c0-.12 0-.24-.06-.37s-.09 0-.09 0a2.47 2.47 0 0 1-.28.91c-.59.35-1.19.78-1.83 1.09A2.6 2.6 0 0 1 117 40.9a6.69 6.69 0 0 1-.73-2.53v-.1a5.67 5.67 0 0 1 .63-1.65 4.42 4.42 0 0 1 1.1-1.08 2.16 2.16 0 0 1 .52.17h.08a8.59 8.59 0 0 0 3 3.73h.06a.08.08 0 0 0 .15.06l.06-.08a.27.27 0 0 0 .11-.16 18 18 0 0 1 1.75-2.15 5 5 0 0 1 1.07-.85l.21-.12c.43 0 .84.08 1.28.05a1.11 1.11 0 0 0 .36-.09c-.21 1.4.69 3 1.62 4.15.09.16.2.3.3.46a.08.08 0 0 0 0 .06 1.07 1.07 0 0 1 .11.28v.07c0 .07.08.1.13.05a11.31 11.31 0 0 0 1-1.48c.24-.37.58-.7.86-1.07a10.57 10.57 0 0 1 1.85-1.37 2.91 2.91 0 0 0 .38.32 1.56 1.56 0 0 0 .9.25c-.41 1.16.36 2.74.92 3.75l.08.14c0 .09.18 0 .14-.08v-.09c.67-.54 1.36-1.07 2.05-1.6a16.82 16.82 0 0 1 1.91-1.12l.19.09a6.43 6.43 0 0 0 1.25.62l.29.07c-.91.63-.48 2.25-.35 3.22-.06.07 0 .2.11.14a.08.08 0 0 0 .12 0 23.88 23.88 0 0 1 3.36-1.64 13.29 13.29 0 0 0 2.91-1.23l.49.12v.26a6.22 6.22 0 0 1-.22 2 5.46 5.46 0 0 1-2.3 3.44.1.1 0 0 0 .06.18 5.67 5.67 0 0 0 5.29-1.34c1.47-1.21 2.21-2.85 3.16-4.41 1.79 0 2.64-.36 3.43-2.13a17.15 17.15 0 0 1 1.35-2.68l.22-.32c.63-.91 1.28-1.77 1.86-2.71a.19.19 0 0 0 .12 0 6 6 0 0 0 1.47-1.83 7.91 7.91 0 0 0 1-2.14.34.34 0 0 0 0-.19c.16-.12.33-.24.49-.38a7.09 7.09 0 0 0 1.8-2.59.25.25 0 0 0 0-.25 3.32 3.32 0 0 0 .07-1.02zM156 21.7zm-.35-.39zm1.76.73h.08-.12zM95.2 34.18c.73.78 1.87 1.79 3.06 1.55l.26-.08a.22.22 0 0 0 .08.38c1.48.44.91 3.29.7 4.4a15.38 15.38 0 0 1-1.37 3.43c-2 1.8-4.32 2.27-7.23 2.74a14.59 14.59 0 0 0-1.7.4 10.24 10.24 0 0 0-1.58.17 5.74 5.74 0 0 0-1.81.68 9.19 9.19 0 0 0 .83-1.85 9.66 9.66 0 0 1 4.46-2.8 5 5 0 0 0 2.43-1.5 5.59 5.59 0 0 0 .88-3.7c-.06-1.53-.4-2.11.49-3.77a4.68 4.68 0 0 1 .84-1.06c.52.17 2.19 1.12 3 1a.07.07 0 0 0 .11 0l.05-.06a.5.5 0 0 0 .19-.08 2.93 2.93 0 0 1-.61.51c-.85.52-2.19-.39-2.92-.73a.18.18 0 0 0-.16.37zM75.16 105c-.48-.76-1-1.48-1.52-2.16-1.69-3.54-2.65-7.6-1.17-11.21l.28-.31c.6-.64 1.17-.53 1.85-.88a2.45 2.45 0 0 0 1-.83c.3-.48.62-.39 1-.24A3.71 3.71 0 0 0 75.12 91a5.73 5.73 0 0 0-.17 1.9c0 .37-.27.13-.58.31-1.52.89-.42 4.77-.25 6.14 0 .17.28.17.26 0-.09-.81-1-6.37.71-5.65a.28.28 0 0 0 .34-.19 8.94 8.94 0 0 0 .15-1.51 2.76 2.76 0 0 1 2.09-2.4 2.83 2.83 0 0 0 .87 0c-.12 1.26-.39 2.51-.44 3.76a18 18 0 0 0-2.17 5.94 12.86 12.86 0 0 0-.77 5.7zM13.27 51.45C12.08 50.82 11 50.2 10.64 50c-1.3-.62-2.45-1.28-3.58-1.88h.83c1.49 1.95 5.46 2.61 7.34.88.61-.57.37 1.39 1.46 1.06a5.83 5.83 0 0 0 2.05-1.55c-.31 1.46-.71 2.89-1.07 4.35a.74.74 0 0 0-.25.16.32.32 0 0 1-.2.07 19.5 19.5 0 0 0-3.95-1.64zm17.12-15.23l.26-.11a4 4 0 0 0-.65 1.43 8 8 0 0 1-7 2.8c-3.09-.22-5.67.26-8.65-1.07l-.74-.53a15.33 15.33 0 0 0 4.4.54c4.48.49 8.79-.14 12.38-3.06zm51.67-23.37zm-2.25-1.94v-.05a1 1 0 0 0 0-.3l.26-.06zm-30 85.37c1-2.68.51-5.88.59-8.77 1.64-.23 3-1.65 4.44-2.52 1.18-.71 3.84.81 5.4.69a5.89 5.89 0 0 0-.77 1.73c-.3 1-.89 4.88-2.71 3.49-2.46-1.89-3.13 3.47-5 3.78v.08c1 0 1.54-.67 2.07-1.51s1.31-2.69 2.48-2.14c.3.14.61.69 1 .67 2.53-.1 2.39-4.49 3.85-6.11 1.27 2 .45 5.35 0 7.89a6.31 6.31 0 0 1-.69 1.48.24.24 0 0 0 0 .25 16.87 16.87 0 0 0-1 1.56c-.13.22-.24.45-.35.68-1.67-.35-3.34-1.26-4.94-1.65a6.25 6.25 0 0 0-4.37.4zm-31-30.15h-.12a8.88 8.88 0 0 0 .65-1 12.9 12.9 0 0 0 2.61-2c1.17-1.13 1.51-2.8 3.77-2.13.91.25 2.15-.45 3.32-1.33-.54 2.35-.57 5.13-1.68 6.95-2.79-.74-5.8-1.38-8.51-.48zM8.12 48.07A19 19 0 0 0 18.75 45c.09.7.18 1.43.21 2.17-1.3.57-2.31 3.24-3.11 1a.24.24 0 0 0-.43-.06c-1.35 2.42-5.69 1.71-7.35 0zm21.4-4.86a7 7 0 0 0 3.15-4.82.53.53 0 0 0 0-.11 4 4 0 0 1 3-2.36c1.45-.18 3 .47 4.45.52-.6 2.26-.43 5.14-2.7 6a.15.15 0 0 0 .08.28 3.64 3.64 0 0 0 1.11-.41 6.08 6.08 0 0 0-1.52 2.46c-.15.42-.28.85-.4 1.27-1.83 1.41-4.38.92-6.58-.11-.7-.41-1.4-.88-2.13-1.32a.32.32 0 0 0-.09-.13l-.26-.21c.36 0 .76.07 1 .06a11.62 11.62 0 0 0 2.59-.78c1.3-.39 1.58.43 2.61.27s1.68-.75 2.61-.92a.16.16 0 0 0 0-.31A4.1 4.1 0 0 0 35 43c-1.15.53-2-.07-3.16.06a12.76 12.76 0 0 0-2.65.9 7.4 7.4 0 0 1-1.73.14 5.38 5.38 0 0 0 2.06-.89zm10.38-2.3l.29-.17a19.77 19.77 0 0 0 3.84-3.58c.85-.86 1.71-.8 2.72-1.17.6-.21 1.14-1.23 1.66-1.64.1-.08 0-.18-.05-.22.39-.41.77-.84 1.13-1.29a.24.24 0 0 0 .31.1 3.22 3.22 0 0 1 2.29 0 5.7 5.7 0 0 1 1.11.68 5.22 5.22 0 0 0-1.58 1.67 11.89 11.89 0 0 0-.76 1.59c-2.85 4.19-8.33 2.57-11.67 4.91a3.41 3.41 0 0 0 .57-.87.07.07 0 0 0 .14-.01zm38.59-13.66c-1.68.87-1.89 3.27-2 5a21.5 21.5 0 0 1-.55 4.11 6.56 6.56 0 0 0 .3-1.43c.3-3.18-.83-6.45 1.52-8.8zM71.18 77.9a7.92 7.92 0 0 0-3.41 1.81c-1 .5-2 1-3 1.37a.64.64 0 0 0-.65.16c-.06.05-.09.11-.14.16h-.09a7.34 7.34 0 0 0 .85-1.93 11.52 11.52 0 0 0 1.14-4.94 14.08 14.08 0 0 0-.3-3.62c-.28-1.25-1.36-2.89-.13-3.64a8.78 8.78 0 0 0 7.13-1.08c1.44-.85 2.33-1.87 3.92-1.88a1.23 1.23 0 0 0 .86.08C76 68 76.87 72.33 74.95 75.77c-.25.16-.48.36-.72.55-1.03.5-2.04 1.04-3.05 1.58zm-27.73-6.65a5.06 5.06 0 0 0-2.58.1c1.13-.95 2.92-1.27 4.08-2.35s1.51-3.94 4-3c.17.06.31-.15.22-.29-1.59-2.55.83-4 2.5-5.17.18-.13 0-.43-.17-.3-1.08.74-2.92 1.79-3.2 3.21a3 3 0 0 0 .14 1.78c.1.29-.45 0-.87-.06-1.11-.05-1.89 1.38-2.38 2.14A7 7 0 0 1 42 70l-.3.13a13.93 13.93 0 0 0 1.66-5.56c.51-3.18 2.12-4.89 5.21-5.14a17.42 17.42 0 0 0 2.22 0 16.12 16.12 0 0 0 2.5 0c-.8 2.21.8 5.59.79 7.58a.52.52 0 0 0 .46.52c0 .17-.07.35-.12.51a.23.23 0 0 0-.17 0l-.1.05c-.25.13-.13.39.05.48a4.74 4.74 0 0 1-1.24 1.72.09.09 0 0 0 0 .06 12.5 12.5 0 0 1-7.65 1.23c-.36-.06-.7-.1-1-.14zm-.3-10.06c-2.56 3.69-8.34.48-12 2.51a6.2 6.2 0 0 0-.6.27l.16-.34a8.59 8.59 0 0 0 2.42-2.75c.43-.72.81-1.47 1.23-2.2.65-1.14 1.14.66 1.48 1.27a.19.19 0 0 0 .29 0c.71-.91 1-1.93 2.58-1.61a.15.15 0 0 0 .08-.29 1.69 1.69 0 0 0-1.88.26 4 4 0 0 0-.66.85c-.35.51-1.14-1.25-1.36-1.55a.17.17 0 0 0-.3 0c-1.2 1.91-2 4.07-3.69 5.55a24.25 24.25 0 0 0 1.77-4.53c.25-.5.49-1 .73-1.54a7.89 7.89 0 0 1 1.13-1.84 4.42 4.42 0 0 0 .53-.53A6.73 6.73 0 0 1 40 53.29c1.73 0 4 .85 5.63.42 0 .15-.07.31-.09.46-.63 3.31-1.62 5.79-5.86 5.09v.08a10 10 0 0 0 4.42.66 6.22 6.22 0 0 0-.62.7 5.23 5.23 0 0 0-.31.48zm13-34.79a12.76 12.76 0 0 1 1-2.89 10.77 10.77 0 0 1 1.64-2 19.9 19.9 0 0 1 1.79-.88 7.22 7.22 0 0 1 2.53 1.09 3.56 3.56 0 0 0 2.48.85c-.21.35-.42.71-.64 1.06a12.78 12.78 0 0 1-1.42 1.65.29.29 0 0 0-.26.27 6.77 6.77 0 0 1-2.13 1.29 10.37 10.37 0 0 1-2.69.49c-.25 0-.32.4-.06.45a14.7 14.7 0 0 0 4.29.11 5.88 5.88 0 0 1 3.67.84l-.2.15c-2.48 2-4.24 2.94-7.54 2.24-1.08-.23-2.21-.53-3.32-.66l.14-.11c.73-.7 1-1.72 1.89-2.3a.08.08 0 0 0-.08-.13 4.2 4.2 0 0 0-1.57 1.57 2.6 2.6 0 0 1-1.08.91h-.66c.75-1.31 1.81-2.4 2.2-4zm31.2 9.08a5 5 0 0 0-1.24 2.2c-2.12 1.48-4 1-6.39.64a14.51 14.51 0 0 0 7.25-2.94zM58.91 55.62a.65.65 0 0 0-.31.07l-.33.18-.55.27a7.39 7.39 0 0 0 1.84-3.74c.25-1.22.25-2.44.38-3.66a19.58 19.58 0 0 1 .68-2.64 13.51 13.51 0 0 1 3.45-4c1-.39 2-.83 3.06-1.18 1.22-.41 3-.22 4.53-.49a11 11 0 0 0-2.13 1.78c-.91.95-2.29 5.17-3.79 4.2s-3.47 6.17-3.81 6.67c-.05.08.07.15.13.07a16.91 16.91 0 0 0 1.58-3.49c.1-.26 1.28-3.79 2.45-2.41.29.34.36.32.77.36.69.07 1.07-1 1.23-1.49a9.42 9.42 0 0 1 3.32-4.51 12.31 12.31 0 0 0-1.29 4.47 27.9 27.9 0 0 1-.83 5.62c-.73 2.21-2.59 2.59-4.32 3.48a19.27 19.27 0 0 1-3.26.06 7.69 7.69 0 0 0-2.8.38zM83.3 44.08a6.22 6.22 0 0 1-.91 4 5 5 0 0 1-3.42 2h-.1a31.72 31.72 0 0 0-3.6.48 9.88 9.88 0 0 0-2.46 1.11l-1.11.35a6.13 6.13 0 0 0 .79-2.72c.23-2.19-.29-4.93.23-7.22.08-.22.18-.43.28-.64 2.23-1.9 5.13-1.12 7.82-.26a7.58 7.58 0 0 0 2.32.36c-1.54 1.17-2.94 3.39-4.08 4.12s-2.12-.79-3 0c-1.66 1.38-1.2 4.27-3.45 5.06-.11 0-.06.22.05.18a2.68 2.68 0 0 0 1.87-1.8 17.36 17.36 0 0 1 .92-2.45c1-1.83 1.81-.28 2.78-.31 2.27-.09 3.45-2.41 5.09-3.74a11.87 11.87 0 0 0-.02 1.48zm-11.48 6.36a4.15 4.15 0 0 1-.28.91c.1-.3.2-.6.28-.91zm0-3.61v.61l-.09-.07c.1-.19.12-.37.13-.54zM69 63.49a6.9 6.9 0 0 0 1.09-4.05c0-.22 0-.44.06-.66.07-1.1-.41-2.32-.43-3.44 1.44-2.64 6.08-1.86 9.43-2.31a29.73 29.73 0 0 0-3 2c-.85.72-.94 3.9-2.84 2.18a.23.23 0 0 0-.38.1c-1 2.46-1.51 5.88-4.33 6.81.09-.16.17-.32.25-.49zm4.48-.24c-1.34.9-2.29 2-3.85 2.58a12.85 12.85 0 0 1-3.24.71 5.58 5.58 0 0 0 2-2 4.91 4.91 0 0 0 3.3-2.9 19.71 19.71 0 0 0 .9-2.22c.43-1.15.42-1.29 1.41-1s1.44-.54 1.84-1.37c.92-1.89 2.78-2.66 4.3-3.91a10.34 10.34 0 0 0 0 1.55c.21 2.65.53 5.4-1.33 7.3h-.13c-1.75.8-3.42.01-5.21 1.26zm.24-32.85a15 15 0 0 0-1.29 1.83c-.52.84-.84 2.24-2.11 2.3a3.33 3.33 0 0 0-1.76.5 2.48 2.48 0 0 0-1.08 1.83c-.6 2.56-2.91 2.76-4.54 4.28a.11.11 0 0 0 .13.17 32.43 32.43 0 0 0 3.72-2.23c1.1-.93.89-2.75 2-3.59 1-.73 2.32.18 3.15-.94.64-.85 1.17-1.76 1.75-2.64 0 .44.11.89.2 1.35.35 1.92.13 5-1.64 6.12-1.66.39-3.83.08-5.41.56a34.48 34.48 0 0 0-4.16 1.78.63.63 0 0 0-.42-.14 6.49 6.49 0 0 0 1.22-2 22.3 22.3 0 0 0 1-4.5 18.39 18.39 0 0 1 .73-2.58c1.09-.93 2-2.16 3.46-2.52a6.29 6.29 0 0 0 5 .32s.04.05.04.09zM52.78 52.29c-.45 2.4-4.3 5.27-6.44 6a7 7 0 0 0 .57-1.35c.59-1.88.82-3.83 1.45-5.69A23.2 23.2 0 0 1 50.11 47a3.35 3.35 0 0 1 .28-.37 19.11 19.11 0 0 1 7.6-2.8 5 5 0 0 0 1.45-.38A8.26 8.26 0 0 0 56.73 47c-.42 1-.68 3.19-2.33 2.24-.49-.28-.42-.27-1-.13-.87.2-.52 2.68-.62 3.18zm-6.51 6.06zm7.06-7.6c0-1.39 2 .07 2.57-.74a13.31 13.31 0 0 0 1.41-2.79A8.86 8.86 0 0 1 59.87 44c-1 1.9-1.16 4.3-1.62 6.36A10.54 10.54 0 0 1 54 56.73c-1.53 1-4.6 1.34-6.95 1.57 3.1-.9 6.22-4.51 6.28-7.55zm25.89-21.37l-.12.28a4.78 4.78 0 0 0-.34.35 4.35 4.35 0 0 1 .5-.73zm-12.38-8.79c-.17.23-.34.48-.51.74a.7.7 0 0 0-.4-.31 8.47 8.47 0 0 1-.89-.3 6.12 6.12 0 0 0-2.64-1.4 2.28 2.28 0 0 0-.5 0 26.59 26.59 0 0 0 2.83-.92 18.69 18.69 0 0 1 3.7.44 8.59 8.59 0 0 0-1.59 1.75zm-.43-5.79v.08h-.14l-.4.11zm-7.41 5h-.35l-.08-.08h.58zm-8 11.73l-.11.12-.14.06v-.07zm3.41 2.76c1.89-1.24 4.63-1.46 6.82-1.76H61.85a4.85 4.85 0 0 0 1.53-.37l-.07.18a24.54 24.54 0 0 1-3.14 2.82c-1 .63-2.07 1-2.53 2.07-.37.9-.45 2.18-2 1.58a.74.74 0 0 0-.52 0c-1.49.69-2.14 2.17-3.24 3.33a.1.1 0 0 0 .14.14c1.08-1.08 2.12-3.49 3.92-3a1.63 1.63 0 0 0 1.73-.42 1 1 0 0 0 .27-.56 3 3 0 0 1 1.94-2.27 13.63 13.63 0 0 0 3-2.47c-.12.56-.22 1.12-.34 1.7a8.9 8.9 0 0 1-4 5.7c-2.41 1.42-5.2 1.58-7.4 3.2a6.92 6.92 0 0 0-1.87 1.12 15.55 15.55 0 0 0 1.32-3.75c.72-2.79 1.23-5.53 3.84-7.24zm-7.11 9.58c-.26 3-1.38 5.67-4.47 6.72a.21.21 0 0 0-.14.13c-1.37.32-2.77.38-4.17.63-.16 0-.09.26.07.24 1.93-.29 4.53.17 6.29-.82a7.68 7.68 0 0 0 2-1.68c-.09.22-.18.42-.26.65s-.2.59-.29.88a2.54 2.54 0 0 1-.6.47c-.06 0 0 .12.05.09l.45-.25c-.15.48-.27 1-.39 1.45-1.71 1-4 0-5.92-.23a8.19 8.19 0 0 0-3.46.41 9.67 9.67 0 0 0 .65-3.19v-.23a.6.6 0 0 0 0-.16v-.11A15.2 15.2 0 0 1 38.87 44a5.23 5.23 0 0 1 4.07-2.26 21.78 21.78 0 0 0 4.37-.65 6.27 6.27 0 0 0 .74-.27 7.4 7.4 0 0 0-.73 3.05zm-24.22 2h-.05zm1.26-1.07a2.25 2.25 0 0 1 .61-.2l.34.19a5.73 5.73 0 0 0-.92.05zm-5.82 9.78a.44.44 0 0 0 .15-.34 8 8 0 0 0 .44-1.24.12.12 0 0 0 0-.12 10.65 10.65 0 0 0 .7-1.41c.63-1.07 1.16-2.23 1.76-3.28l.46-.78c2.16-1.35 4.78.34 7.16 2A4.07 4.07 0 0 0 26.72 51c-1.38 2.24-3.35.11-4.94 1.27s-2.6 2.73-4.09 3.87a11.36 11.36 0 0 0 .85-1.53zm16.58-2.83a6.35 6.35 0 0 1-1.59 2.41 8.51 8.51 0 0 0 1.61-2.38zm-14.43 6.48a6.4 6.4 0 0 1 1.7-1.33c2-.14 4 .7 6 1a8.23 8.23 0 0 0 .92.08l-.35.27a23.88 23.88 0 0 1-2.3 1.7c-.53.33-1.54-.06-2.16-.06A2.35 2.35 0 0 0 23 61a13.7 13.7 0 0 1-3.31 3.64 10.88 10.88 0 0 0 .83-6.15c.03-.09.08-.18.15-.26zm33.47 11.48c2.21-2 1.55-5.4 1.54-8.27v-.63c.43-1.81 2-3 3.44-4a19 19 0 0 1 5.46-.43 5.6 5.6 0 0 0 2.72-.71c-1 1.06-1.73 2.36-3.11 3.17-1.58.93-1.44 4.91-3.9 2.58a.23.23 0 0 0-.35 0 16.23 16.23 0 0 1-3.14 5.28.12.12 0 0 0 .17.17 11.57 11.57 0 0 0 2-2.48c.47-.78.81-2.78 1.92-1.81a1.25 1.25 0 0 0 1.63.11c1-1 1.08-2.92 2.61-3.41a2.43 2.43 0 0 0 1.24-.95c.34-.54.66-1 1-1.48a34.39 34.39 0 0 0 .5 3.89c.25 2.68-3.45 5.41-5 7.24a.4.4 0 0 0-.1.26c-2.51 1.2-6.11.48-8.63 1.47zM66 82.59c-.08.24-.15.49-.21.74a3.9 3.9 0 0 1 .21-.74zm16.67-23.47a4.69 4.69 0 0 0-1 .29v-.05a5.24 5.24 0 0 0 1.14-2.8 17.11 17.11 0 0 1 1.09-4.93c.07-.16.17-.31.25-.47l.33-.58c.32-.5.68-1 1-1.44.28-.14.56-.29.84-.42a19.26 19.26 0 0 1 4.85-.26 13.68 13.68 0 0 0 2.83-.28 20.28 20.28 0 0 0-1.65 2.28c-.86 1.39-1.52 4.74-3.74 3.26-2.05-1.37-5.01 4.59-5.94 5.4zm2-11.87h.07c-.12.21-.25.41-.4.61a4.4 4.4 0 0 0 .37-.61zM87.76 38a16.39 16.39 0 0 0-.92 2 6.12 6.12 0 0 1 1.32-4.38 5.49 5.49 0 0 0 1 0 11.39 11.39 0 0 0-1.4 2.38zM66.54 23.47c1.17-1.71 2.42-3.65 4.32-3.79q.44.2.87.45a26.11 26.11 0 0 0-5.19 3.34zm-8.74-6.69a12.28 12.28 0 0 0 2.79 1.27 13.67 13.67 0 0 1-1.81.25c-2.93.18-6.4-2.17-8.36-4.32a49.44 49.44 0 0 0 4.69 1.59 16.71 16.71 0 0 0 2.7 1.21zM17.34 56.63a8.17 8.17 0 0 0 2.27-1.77c1-1 2.27-3 4.17-2.2a3.19 3.19 0 0 0 1.35.43 2.32 2.32 0 0 0 2-1.16 3.76 3.76 0 0 1 3.15-1.84 16.5 16.5 0 0 0 1.59 1 5.88 5.88 0 0 0 2.14.63 5.89 5.89 0 0 1-2.25 3.45.2.2 0 0 0-.06.1 10.18 10.18 0 0 1-4.42.19 9.71 9.71 0 0 0-3.92.09 5.09 5.09 0 0 0-2.65.8.35.35 0 0 0-.24 0 10.34 10.34 0 0 1-3.25.53zm12.56 7.42a.24.24 0 0 0 .07.23l-.23.16zm12.46-.67zm-4 16.22a15.56 15.56 0 0 1-.28 2.8c.14-.92.22-1.86.29-2.8zm1.18-7.45c.06-.09.1-.18.17-.26l.33-.2a3.68 3.68 0 0 0-.29.24.15.15 0 0 0-.09 0l-.05.07zM50.67 85.3c3.19-1.2 2.18-5 1.72-7.84-.71-4.31.69-7.61 5.7-7.42a12.27 12.27 0 0 0 3.46-.17 16.5 16.5 0 0 0-.87 3.49c-.24 1.25-.57 1.9-2.56 1.93-.38 0-1 0-1.24.32-1.25 1.6-.17 3.75-1.59 5.41-.08.1.05.24.14.14a4.1 4.1 0 0 0 1-2.85c.1-1.39-.11-2.75 2.22-2.57a1.7 1.7 0 0 0 1.23-.16c1.77-1 1.48-3.67 2.37-5.35a26.65 26.65 0 0 0 .61 4.49 13.94 13.94 0 0 1-1.14 7.69 4.53 4.53 0 0 1-.47.21l-.29.1a7.92 7.92 0 0 1-2.91.22 6.27 6.27 0 0 0-3.05-.38c-1.07.18-1.94 1.16-2.81 2.06a11 11 0 0 1-1.62.75zm14.43 5.39l-.18.18.08-.17zM87 65.91a.24.24 0 0 0-.37.12c-.12.36-.46 1.42-.91.92-.29-.32-.62-.6-.9-.93a.11.11 0 0 0-.19.05c-.44 1.3-.12 2.69-.46 4a.08.08 0 0 0 .15 0c.32-1.24 0-2.6.47-3.8.3.38.67.71 1 1.1a.14.14 0 0 0 .19.05 2.57 2.57 0 0 0 1-1 6.49 6.49 0 0 1-1.42 4.31c-.41.5-.81 1-1.2 1.47a.2.2 0 0 0 .28.28 12 12 0 0 1 4-2.71 3.6 3.6 0 0 1 1.18-.14 5.24 5.24 0 0 0-.24 1.63 7.43 7.43 0 0 0 .06 1.16c-2.89 1.47-5.46 2.48-9 2.05a8.63 8.63 0 0 0-3 0 1.24 1.24 0 0 0-.83.29 4.13 4.13 0 0 0-.48.25 6.15 6.15 0 0 0 .73-.84c2.94-.47 3.01-2.96 4.26-5.17a12.21 12.21 0 0 0 .78 2c.23.41 1.07.75 1.05 1.11a.09.09 0 0 0 .17 0c0-.06.18-.48.23-.63s-.1-.13-.13-.05c-.12.27-.12.58-.1.29a.09.09 0 0 0-.06-.08c-1.18-.41-1.37-2.06-1.71-3.09a.2.2 0 0 0-.36 0c-1.38 2.05-1.28 4.69-3.87 5.49a7 7 0 0 0 .94-2.58 33.28 33.28 0 0 0 1.36-6.18c.06-.19.12-.36.19-.54a9.21 9.21 0 0 1 .87-1.51 5.29 5.29 0 0 1 2.41-1.59 9.56 9.56 0 0 1 2.91-.52c.61 0 1.21.14 1.81.11a10.21 10.21 0 0 0-.81 4.68zm-1.35-6.7a9.55 9.55 0 0 0-2.74-.12 10.57 10.57 0 0 0 2.22-2.81c.77-1.26 2.32-3.46 4-1.82.19.18.54.52.83.53 1.06 0 1.52-.52 1.84-1.47a15.89 15.89 0 0 1 3.84-5.82 10.71 10.71 0 0 0 .22 2.79c.11.58.21 1.12.29 1.66s.1.94.14 1.39a8.18 8.18 0 0 1-.11 1.81 17.55 17.55 0 0 1-3.2 3c-2.36 1.65-4.7 1.29-7.34.86zm7-24.54a.85.85 0 0 0 0-.31l.15-.09c-.01.14-.08.27-.14.4zm6.2-3.36a4.84 4.84 0 0 1-2.21.87l.12-.1.33-.17.51-.23a8.68 8.68 0 0 1 1.26-.37zm-2.49 1.11a5.61 5.61 0 0 0 4.07-1.29h.16a1.45 1.45 0 0 0-.83.6c-.37.55-.61 1.16-1 1.68s-2.51-.18-3.12-.33c.22-.22.47-.44.73-.66zm5.91-1h.08zm-25.94-4.7a.21.21 0 0 0-.22 0c-2.45 1.62-5.4.25-7.87-.58 1.06 0 2.12.06 3.19 0a8.83 8.83 0 0 0 1.41-.14 8.81 8.81 0 0 0 4.08-.18 1 1 0 0 0 .36-.23l.14.19a3.14 3.14 0 0 0-1.09.95zm-22.94-5.91zm-5.56 13.58c-.55.48-1 1.18-1.76 1.14a2.11 2.11 0 0 0-1.62.62c-1.64 1.38-2.61 3.47-4.51 4.54a9.23 9.23 0 0 0 .41-1.27 12 12 0 0 1 1.45-4.13 17.29 17.29 0 0 0 2.2-4.05c.8-2.27 1.56-4.38 4.36-3.75.82.18 1.6.49 2.4.75-1.26 1.9-1.1 4.51-2.93 6.15zM15 39.68c2.88 1.12 6.06 1.12 9.12 1.34a7 7 0 0 0 5.63-2.14 6.61 6.61 0 0 1-3.12 3.88s0 .05-.06.08a12.76 12.76 0 0 1-2.5.28l-.54-.06c-2.19-.92-4.54-1.3-6.74-2.38-.51-.25-1-.53-1.51-.83zm13.51 32.93a17.51 17.51 0 0 0 .25-3.71 10.28 10.28 0 0 1 .21-2c1.66-2.5 5.29-2.53 8-1.43a5.82 5.82 0 0 0 3.33.49v.29c-1.3 1.43-3.3 3.87-4.73 3.43a.3.3 0 0 0-.37.21l-1.82.31a.2.2 0 0 0-.31 0 15.8 15.8 0 0 1-5.24 5.91c-.07.06 0 .18.07.13a15.39 15.39 0 0 0 4.73-4.38c1.2-1.82 1.35.45 2.42-.69.48-.51.29-.84.94-.84a3.69 3.69 0 0 0 1.73-.86 17.34 17.34 0 0 0 2.42-1.93 8.9 8.9 0 0 1-.17 1c-.25 1-1.18 1.88-1.56 2.88a7.74 7.74 0 0 0-.41 3.35c-2.27 1.67-6 1.29-8.7 1.67a10.79 10.79 0 0 0-2.86.74l.11-.23a12.84 12.84 0 0 0 1.96-4.34zm8 15.31a14 14 0 0 0 2.95-6.13c.47-2.46-.54-5.22-.12-7.67 2.08-2.69 5.21-.67 8.12.09a6.94 6.94 0 0 0 1.79.23 5.1 5.1 0 0 0-1.41 2 5.29 5.29 0 0 0-.42 1.87v1c0 2.5-2 0-2.26-.29a.18.18 0 0 0-.32 0 13.48 13.48 0 0 1-4.18 6.07c-.14.12.06.31.2.2a12.4 12.4 0 0 0 3.32-3.88c.1-.18 1-1.75.85-1.94a3.5 3.5 0 0 0 1.55 1.38.86.86 0 0 0 1.22-.63c.4-1.79.29-3.62 1.46-4.9a5.08 5.08 0 0 0 .21 1.2c.34 1.12 1 2.14 1.46 3.23.89 2.32-.56 4.35-1.94 6.06a45.1 45.1 0 0 1-6.62.48A12.25 12.25 0 0 0 37 87.68zm28.73 25.48c-.28-2-1.08-3-3-4.71-2-3.41-1.79-7.55-1-11.32.26-.53.54-1.05.81-1.58A8 8 0 0 1 66 92.2a8.62 8.62 0 0 1 4.1-.6 8.86 8.86 0 0 0-3.28 2.4c-.65.65-.41 1.71-.29 2.49.44 2.79-.14 1.12-1.28 1.18-2.31.13-1 8.72-.69 10.2 0 .14.24.08.21-.06a31.31 31.31 0 0 1-.38-5.45c0-1.93-.37-4.7 2.15-3.38a.18.18 0 0 0 .24-.06c.89-1.32-.65-3.94 1.32-4.52 1.12-.33 1.78-1.42 2.87-2-1.43 2.54-2.23 6.27-1.32 8.83a13.93 13.93 0 0 0-3.45 6.17 21.06 21.06 0 0 0-.96 6zm14.84-30.65a.24.24 0 0 0-.21.23c-.14 1.35-1.61 5.35-4 4.1A1.84 1.84 0 0 0 75 87c-1.42 0-1.48 2.27-3.67 2.15a9.26 9.26 0 0 0-4.32.72c3.07-2.69 6.24-5.28 9.28-8a.23.23 0 0 0-.1-.38c-2.15-.3 3.13-4.4 3.6-4.72.07 0 0-.16-.06-.11-1.16.71-5.21 2.91-4.72 4.7.07.26.34.37.56.47-.1-.05-2.69 2.38-3 2.67-2.27 2-4.87 3.79-7.09 5.87a.54.54 0 0 0 0-.08c0-.25.08-.49.13-.73v-.06a4.77 4.77 0 0 0 .16-.66 3.78 3.78 0 0 0 .36-1.56 21.28 21.28 0 0 1 3-6.15c1.18-1 2.67-1.58 3.52-2.79l.85-.47a4.41 4.41 0 0 0 1.09-.43l.53-.31a.37.37 0 0 0 .26 0 6.33 6.33 0 0 0 1.39-1c.26-.22.6-.42.88-.67a13.71 13.71 0 0 1 3.8 1.48 19.44 19.44 0 0 0-1.37 5.81zm7.29 1.46l-.06.09zm11-22.9a6.26 6.26 0 0 1 2-2.37 4.13 4.13 0 0 1 1.33-.47l-.07.1c-1.45 2.42-2.77 6.52-2.13 9.83a21 21 0 0 0-5.3 7.54 9.64 9.64 0 0 1 1.45-5.76c1.11-1.58 2-2.84 1.95-4.82a.08.08 0 0 0-.16 0c0 2.91-2.25 4.38-3.45 6.76-.83 1.65-.47 3.77-.31 5.68a19.61 19.61 0 0 0 .1 5.81v.31c-1.78-5-3.76-12.09.05-16.26a7.59 7.59 0 0 0 2.76-2 .34.34 0 0 0 .09-.24 3.39 3.39 0 0 0 1.11-2.34.11.11 0 0 0-.22 0 3.17 3.17 0 0 1-1.41 2A11 11 0 0 1 93 67c-1.15.37-2.42.42-3.6.68a7 7 0 0 0-1.9.64c.76-2.49.32-5.38 2-7.64a6 6 0 0 0 1.18-.07 8.64 8.64 0 0 0 4.59-2.7c-.91 1.57-2.13 3-3.19 4.46-.09.13.11.29.22.17.88-1 2-1.85 3-2.81a.15.15 0 0 0 .2 0c1.53-1.56 3.72-1.76 5.92-2a7.1 7.1 0 0 0-1.52 1 8.68 8.68 0 0 0-1.75 2.43c-.15.17.13.35.24.15zM96.81 58h.12l-.19.11zM101 32.19a.44.44 0 0 0-.42-.15l.14-.07.29.22zM89.68 10.7h-.1zm-8.31-7l.72.68a17.43 17.43 0 0 1-2.7-2.29c-.06-.17-.13-.34-.2-.5a16.81 16.81 0 0 0 2.18 2.11zm-1.44 0a11.19 11.19 0 0 0 2 2c1 .75 3.07 1.93 4 3.27a.84.84 0 0 0 .16.27l.07.13h-.54l-.52-.15a.28.28 0 0 0-.17-.39 6.67 6.67 0 0 1-2.88-1.13 6.5 6.5 0 0 1-1.59-2.54c-.2-.49-.37-.99-.54-1.5zm-5.58 6.61zm-10.8-3.2l.37.23a11.19 11.19 0 0 0 4.37 2.72c1.7.62 3.77.58 5.24 1.79 1.17 1 3 3.49 2.06 5.15h-.05a4.58 4.58 0 0 1-2.31-1.48 10.2 10.2 0 0 0-1.77-2 3.47 3.47 0 0 0-1.77-.65c-1-.77-2.1-1.35-3.08-2.07a16.6 16.6 0 0 1-3.06-3.69zM36.47 22.47c.09.07.17.14.27.2a7.18 7.18 0 0 0 2.53.94 19.1 19.1 0 0 0 5.58.79 10.7 10.7 0 0 0 6.07-2 9.91 9.91 0 0 1 3.8 0 6.31 6.31 0 0 0 .93.08 16.75 16.75 0 0 1-2.7 2.25c-.54.33-2.06.19-2.77.43a20.77 20.77 0 0 1-5.18 1 .09.09 0 0 0 0 .18 19 19 0 0 0 3.58-.38 7.16 7.16 0 0 1 3.07-.41 2 2 0 0 0 1.07.06 7.61 7.61 0 0 0 2.47-1.42l-.27.69c-.3.84-.5 1.63-.76 2.43-3.21 1.17-6.64-2.78-9.59.14l-.08.1a.45.45 0 0 0-.26-.23c-2.8-.99-6.01-2.32-7.76-4.85zm5.12 5a.68.68 0 0 0-.15.07l-.29.22.36-.32zm-14.41 3c.77.05 1.56.1 2.36.12a16.73 16.73 0 0 0 7.8-.61 3.2 3.2 0 0 1 3.24 3.78.16.16 0 0 0 0 .28 2.26 2.26 0 0 1-1.21.63 5.47 5.47 0 0 1-1.37.01c.5 0 1-.09 1.49-.16s.26-.64-.08-.61c-2.53.2-4.46 0-6.39-1.8a.16.16 0 0 0-.22 0c-1.87 1.71-3.92-.14-5.22-1.18-.06 0-.14 0-.08.08 1.08.92 3.48 3.14 5 1.77.4-.36 2.68 1.42 3.29 1.65a4.12 4.12 0 0 0 .78.19 15.06 15.06 0 0 0-2.69.69.43.43 0 0 0-.24-.17c-3.23-1-5.69-3.13-8.46-4.85a18.91 18.91 0 0 0 2 .23zm44.37 70.33l.13-.13v.12a.87.87 0 0 0-.13.01zm9.83-9.93zm.07-2.1c-1.37-3.86-.56-7.83.48-11.64a8.5 8.5 0 0 0 3.86.12 9.85 9.85 0 0 0 2.82-.69v.09a6.33 6.33 0 0 1-1.91 1.26c-.72.29-1.49.47-2.22.74-.09 0-.05.17 0 .14 1.44-.46 2.83-.64 3.93-1.58l-.07.29a12.68 12.68 0 0 0-.13 3.5 19 19 0 0 0-3.65 9 32.29 32.29 0 0 1-.45-4.26c-.09-1.33-1.26-2.66.51-3.58 1.48-.77.35-2.08 0-3.2 0-.15-.28-.09-.23.06.44 1.43.61 2.54-.82 3.39a1 1 0 0 0-.44 1c.31 2.5.47 5.29 1.41 7.66a10.75 10.75 0 0 0 .94 4.37 19.7 19.7 0 0 1-4.03-6.67zm50.41-26.18l.25-.07-.12.21a.46.46 0 0 0-.13-.14zm.23 1.89c.34-.8.57-1.62.92-2.4a1.94 1.94 0 0 0 .44-.62.24.24 0 0 0 0-.21 2.24 2.24 0 0 0-.11-2.33.1.1 0 0 0-.18.08 2.6 2.6 0 0 1-.17 2 1.71 1.71 0 0 1 0-.82c0-.06-.07-.1-.1 0a1.26 1.26 0 0 0-.07 1.23l-.07.13a2.73 2.73 0 0 1-.45.24.87.87 0 0 0-.3-.78 2.64 2.64 0 0 0 .5-1.83c0-.11-.18-.06-.16 0a2.61 2.61 0 0 1-.62 1.74.13.13 0 0 0 0 .16c.3.24.21.49.18.78l-.47.14a3.16 3.16 0 0 0 .12-.6.15.15 0 0 0-.11-.15h-.25c.42-.78 1-1.27.55-2.13l-.07-.08s0-.07-.05-.11-.18 0-.13.07c.57.94 0 1.57-.61 2.28a.14.14 0 0 0 .06.22l.28.07c0 .2-.09.39-.13.59l-.48.17a.87.87 0 0 0-.27-1 3.08 3.08 0 0 0 .39-.49c.08-.13 0-.52-.1-.65s-.17-.05-.14 0 .16.42-.06.54-.37.28-.57.41a.23.23 0 0 0 0 .4c.6.36.13.82-.06 1.3a1.84 1.84 0 0 0-.39.93c0 .21-2.14-.62-2.57-.62a1.67 1.67 0 0 0-.27 0c1.59-1.15 3.43-2.47 1.77-4.49-.75-.92-1.28.5-1.57-1s-.42-2.3-1.85-2.79c-.15-.05-.21.18-.06.24 1.71.71 1.34 2.43 1.83 3.85a.21.21 0 0 0 .31.13c1.27-.93 1.58.85 1.66 1.42s-1.11 1.38-1.51 1.67-.89.63-1.32 1a5.77 5.77 0 0 0-1.75-6.56c-2.43-3.38-6.72-5.58-10.71-4.36a.1.1 0 0 0 .05.19 6.85 6.85 0 0 1 6.22 1.49l-.43-.16c-1.61-.58-4.2-.94-5.69.1-.07 0 0 .16.07.12 1.34-.85 3.08-.55 4.68.21a8.26 8.26 0 0 0-4.07.57.09.09 0 0 0 0 .16 7.36 7.36 0 0 1 4.16.2c-.56 0-1.11 0-1.62.1-5.56.57-9.65 5-12.32 9.81a20.13 20.13 0 0 0-1.73 2.7 17.43 17.43 0 0 1 .79-2.67c.67-1.8.57-3.75 3-4.1.1 0 .08-.19 0-.18-1.87.15-2.49 1.34-2.94 3-.54 2-1.44 3.54-1.49 5.46q-.09.24-.16.47c-.48-3.2-.58-5.94.86-9.11 1.16-2.56 3.8-3.63 6-5.15 3.48-2.46 1.2-6 3.47-9 .17-.22-.21-.44-.37-.22-1.72 2.29-1.8 5-3.49 7.12a10.36 10.36 0 0 1-1.56 1.43c-.74.5-1.53.88-2.28 1.29a14.36 14.36 0 0 1-3.86 1c-.69.08-1.37.17-2 .31a4.65 4.65 0 0 0 1.27-1 2.5 2.5 0 0 0 .39-1.54c.11-1.45 1-.65 1.75-1.06 1.16-.68 1-2.54.88-3.64-.22-2-.76-3.19 1.26-4.86a7.51 7.51 0 0 0 2.29-3c0-.07-.07-.13-.11-.06-1 2.1-3.34 2.93-4.19 5a2.8 2.8 0 0 0 .17 1.51c.26 1.06 1.32 6-2 4.64a.16.16 0 0 0-.2.12c-.37 1.54-.63 2.68-2 3.77-.06 0-.63.25-1 .4a6.91 6.91 0 0 0 .7-1.67c1.28-3.61-1-7 .31-10.47 1.4-1.87 2.71-3.52 2.8-6a4.66 4.66 0 0 0-1.19-3.44 7.28 7.28 0 0 0 1.78-.81c.6-.31 1.5-1 1.47-1.74a.21.21 0 0 0-.39-.11 9 9 0 0 1-1.46 1.36 4.2 4.2 0 0 1-1.67 1.12 2.06 2.06 0 0 0-.8-.35 4.74 4.74 0 0 0 2.18-2.33 1.5 1.5 0 0 0 2.27-1.15 1.46 1.46 0 0 0 .34.13.31.31 0 0 0 .22 0 3.67 3.67 0 0 1 .61.69 6.13 6.13 0 0 1 .13 6.1c-.09.13.11.29.22.17a5.89 5.89 0 0 0 .88-6.32c-.29-2.15-1.16-4.69-3.46-5-.09 0-.14.13 0 .15 1.71.32 2.29 1.58 2.64 3-2.28-3.08-7.59-1.09-10.71-.16a20.2 20.2 0 0 1-4.84 1c-3.2.1-5.62-3.84-7.45-5.84a34.46 34.46 0 0 0-6.26-5.57 13.12 13.12 0 0 0-3-2 9.5 9.5 0 0 0 3.09 0 1.14 1.14 0 0 0 1.11.17c.57-.26 1.09-.51 1.59-.76a13.4 13.4 0 0 0 1.9-.7c3.16-1.52 6.08-3.49 9.18-5.14 4.88-2.59 7.39 1.44 11.55 1.77a1.23 1.23 0 0 1 .46.58 1.43 1.43 0 0 1-.31 1.53.1.1 0 0 0 .14.15 2.34 2.34 0 0 0 .59-2.35c.58.54.5 1.46 1 2.3a2.36 2.36 0 0 0 2.14.91c1-.08 1.87-1.91 2.2-.21 0 .22.4.17.39-.05-.08-2.9-2-.14-3.51-.92-.78-.39-.82-2.25-1.5-2.94a2 2 0 0 0-1.15-.44 9.36 9.36 0 0 1-1.89-.13 2.34 2.34 0 0 0 2.38-1.43.09.09 0 0 0-.15-.09c-1.5 2-2.87.48-4.34-.57l.24.06a5.39 5.39 0 0 1 1.39.59 1.93 1.93 0 0 0 .92.43c1.29 0 1.69-1.45 1.72-2.55 0-.12-.16-.11-.18 0-.11 1-.84 2.73-2.09 1.64a5 5 0 0 0-1.54-.93c-.27-.1-.58-.21-.91-.3a17.17 17.17 0 0 0 2.56 0c1.2-.19 1.61-.89 2.14-1.93a.1.1 0 0 0-.17-.1c-.42.7-.79 1.56-1.73 1.54s-1.71-.33-2.49-.41a6.77 6.77 0 0 0-2.76.19 10.67 10.67 0 0 0-1.29-.51 16.78 16.78 0 0 0 7.17-1.13c1.95-.88 3.79-1.94 5.8-2.68s4.11.92 5.88 2a15 15 0 0 0-2.19-.18.08.08 0 0 0 0 .15c1.26.38 2.57 1 3.9 1.54-1.76-.16-3.51-.42-5.28-.71a5.06 5.06 0 0 0-2.18-.36 18.88 18.88 0 0 0-3 .78.1.1 0 0 0 .05.2 10.67 10.67 0 0 1 4.6-.24h.06a42.21 42.21 0 0 0 7.32 1.61c2.88.35 5.5-.12 8.26.42-1.66.48-3.35 1.19-4 1.26a.1.1 0 0 0 0 .19 16.36 16.36 0 0 0 3.29-.39c.89-.16 2.54-.72 3.57-.39a13.74 13.74 0 0 1-2.86.35c-.09 0-.11.15 0 .16 3.93.6 8.05-1.18 10.56 2.87A14.87 14.87 0 0 0 136 16a14 14 0 0 1-1.35-.62.06.06 0 0 0-.06.1 10.21 10.21 0 0 0 3 1.5 3.06 3.06 0 0 0 .87.12c3.52 1 7.11 1 10.75 1.74 4.53.89 6.89 4.83 10 7.72.14.12.39 0 .27-.21l-.23-.32c.45.09.82.12 1.11.57a1 1 0 0 1-.22 1.46c-.08.07 0 .2.11.15a1.48 1.48 0 0 0 .86-1.78.92.92 0 0 0-.24-.87 1.74 1.74 0 0 0-1-.61h-.05c-.52-.15-1.09-.25-1.44-.35h-.18c-.49-.67-1-1.33-1.48-2a14.16 14.16 0 0 0 2.24.17 18.07 18.07 0 0 1 3.73.25 1.38 1.38 0 0 1 1.15 1.8c-.69.24-1.3.39-1.62-.7a.12.12 0 0 0-.2-.05c-1.21 1.19-2.53.45-3.6-.48-.09-.08-.23.05-.14.14.94.83 2.45 1.81 3.62.77 0 0 .54.8.75.87a1.49 1.49 0 0 0 1.09-.15 11.65 11.65 0 0 1-1.27 2.52c-.81.84-1.81 1.5-2.66 2.3-.11.1 0 .24.16.16a11.85 11.85 0 0 1 1.31-.88c-2.42 3.25-4 7.4-7.63 9.4h-.07a2.59 2.59 0 0 0-1.62.52.11.11 0 0 0-.11-.1 5.12 5.12 0 0 1-2.78-.47.11.11 0 0 0-.11.19 3.93 3.93 0 0 0 2.91.53.13.13 0 0 0 0 .06c-3.65.79-9-2-11.87-3.45s-5.46-3.38-8.21-5c-4-2.44-7.33-2-10.25-.23-2.89.93-4.71 3.63-6.54 6a.35.35 0 0 0-.15.12c-.06.08-.09.17-.14.26-1.35 1.55-2.68 3.09-4 4.39-.13.12 0 .35.19.24a25 25 0 0 0 3.36-3.14c-.2 1.5.3 3.1.33 4.63a.11.11 0 0 0 .22 0 21.55 21.55 0 0 0-.08-2.89 5.07 5.07 0 0 1 .12-1.37c1 4.42 5.55 6.69 8.94 9.32 1.48 1.15 3 2.27 4.51 3.37a30.4 30.4 0 0 1-5.46-3.14s-.09 0 0 .08a35.15 35.15 0 0 0 8.6 5.22 17.89 17.89 0 0 0 3.55 1.42.16.16 0 0 0 .11 0 8.14 8.14 0 0 1 4.08 2.35.76.76 0 0 1-.59-.2 5.38 5.38 0 0 1-.67-.82c-.06-.08-.2 0-.14.11.49.8.83 1.54 1.89 1.48a.6.6 0 0 0 .41 0 1.48 1.48 0 0 1 .08 1 2.9 2.9 0 0 0-.14.73 1.18 1.18 0 0 1-.41.43 4.53 4.53 0 0 0-.79.5l-.06.07-.13.08c-.17-.47-.55-.91-.41-1.4.21-.73-.31-1.43-.7-2-.05-.08-.18 0-.13.08a6.2 6.2 0 0 1 .58 1.2c.19.54-.24.75-.2 1.2a1 1 0 0 0 .16.57 2.28 2.28 0 0 1 .25.94v.13a3.86 3.86 0 0 0-.27 1.21v.11a1.8 1.8 0 0 1-1.91 1.24 6.69 6.69 0 0 0 .29-.94 1 1 0 0 0 0-.43 1.49 1.49 0 0 1 .6-1.38c.78-.75.36-1.84-.14-2.63a.06.06 0 0 0-.1.06c.47.79.85 1.95-.16 2.42a1.3 1.3 0 0 0-.66.51 1.16 1.16 0 0 0-.19.74 2.88 2.88 0 0 1-.53 1.82 3.81 3.81 0 0 0-1.18 1.09c-.39.5-.68 1.06-1.07 1.56a2 2 0 0 1-.76.59 4.1 4.1 0 0 1-2.58-.58c1.19-.23 2.03-1.37 2.57-2.64zm1.24-27.95a7.48 7.48 0 0 1-1.08-3 6.12 6.12 0 0 0-.51-1.44c.4.26.8.53 1.19.81.28.85.18 2.15.44 2.76a2.67 2.67 0 0 0 .74 1H134a.88.88 0 0 1-.67-.13zm-11.66 5.07c0 .85.1 1.69.2 2.53.06.51.09 1.07.19 1.61-1.36-1-2.8-1.86-4-2.91a4.21 4.21 0 0 0 3.61-1.23zm9.45-9.88a7.89 7.89 0 0 1 .8 3.13l-.1-.1c-.31-.83-.58-1.68-1-2.48a4.15 4.15 0 0 0-2-1.67 12.58 12.58 0 0 1 2.3 1.12zm-2.43-1a4.39 4.39 0 0 1 1.93 2.36c.09.31.15.63.23 1a14.54 14.54 0 0 0-1.58-1.48 8.5 8.5 0 0 1-1.46-2.19 7.3 7.3 0 0 1 .95.25c-.06-.1-.12-.02-.07.03zm-1.33-.43a14 14 0 0 0 1.29 2.42c.34.36.7.7 1.06 1a12.36 12.36 0 0 1-1.46-.21c-.84-.23-.91-1.24-1.07-1.93a3.36 3.36 0 0 0-.57-1.38c.25.01.5.03.75.06zm.68 3.88h-.12a.19.19 0 0 0 0-.06zm-1.95-4c.73.53.52 2.21.82 3a1.6 1.6 0 0 0 .75.84h-.06c-.1.08-.53.5-.7.37a1.35 1.35 0 0 1-.29-.72 16.7 16.7 0 0 1-.21-1.66 1.81 1.81 0 0 0-1.69-1.63 8.31 8.31 0 0 1 1.39-.18zm-2.51.45a.07.07 0 0 0 .09.07 1.62 1.62 0 0 1 2.26 1.47 15.85 15.85 0 0 0 .19 1.73 1.41 1.41 0 0 0 .4.79l-.17.07a.21.21 0 0 0-.07-.09c-.73-.46-.67-1.25-.77-2a2.42 2.42 0 0 0-.58-1.25 2 2 0 0 0-2-.53c.19-.07.42-.16.66-.24zm-1.56.69a.12.12 0 0 0 .08 0 7.47 7.47 0 0 1 1.53-.18c.94 0 1.36.91 1.44 1.72v.24a3.2 3.2 0 0 0-.28-.48c-.95-1.14-2.21-1.08-3.49-.91.27-.12.5-.25.7-.38zm15.77 4.89a9.83 9.83 0 0 0 .32 1.39 3.8 3.8 0 0 1-.38-.37 4 4 0 0 1-.89-1.58zm-1.2-.71c0 .14 0 .28.06.41-.09-.12-.19-.24-.28-.37l-.18-.29.25.16zm-1-.64a4.32 4.32 0 0 0 1.31 2l.1.15c-.53-.46-1.09-.89-1.62-1.35a3.9 3.9 0 0 1-1.13-1.75c.48.32.94.65 1.39.96zm-1.79-1.29a5.1 5.1 0 0 0 1.84 3.08h-.46a2.52 2.52 0 0 1-1.15-.84 4.61 4.61 0 0 1-.57-1.94c0-.19-.07-.4-.13-.6zm5.53 4.73a3.12 3.12 0 0 1-1.2-1.87l.69.37a4.57 4.57 0 0 0 .7 1.57zm2.11-.06a1.55 1.55 0 0 1-.14-.2l.18.08a.43.43 0 0 0 .01.13zm-.64-.43a3 3 0 0 0 .25.73l-.27-.28a3.28 3.28 0 0 1-.45-.67zm-.86-.41a3.15 3.15 0 0 0 .31 1 3.25 3.25 0 0 1-.73-.83c-.1-.17-.18-.36-.26-.54zm.46 1.26zm-5 12.83c.24.48.11.67-.29.91a1 1 0 0 0-.43.56 2.59 2.59 0 0 0-.16 1c-.68-.23-1.35-.48-2-.77 1-.56 2.04-1.02 2.93-1.69zm8.18-1.73c0 1.06-1 2.67-1.3 3.46a17.55 17.55 0 0 1-1.12 2.41c-.17.28-.78 1.21-.74 1.2a.42.42 0 0 0-.23.19c-.09 0-.37-.16-.7-.41-.17-.28.32-.4.49-.42a.12.12 0 0 0 .09-.15c-.2-.49-.37-1-.55-1.49 0-.08-.16 0-.13 0 .14.45.28.91.4 1.36a.68.68 0 0 0-.67.37c-.47-.37-.94-.77-1.06-.84l-.52-.27c2.25-1.5 4.68-3.08 6.08-5.41zm-7.2.81a14.51 14.51 0 0 0 .18 4.18c-.53-.21-1.06-.4-1.6-.59a3.22 3.22 0 0 1-.1-.69c0-.64.28-.8.73-1.07s.17-.7 0-1a5.49 5.49 0 0 0 .83-.83zM131.64 47a23.55 23.55 0 0 1-.08 3.84 4.65 4.65 0 0 0-.08 1.81c-.51-.3-1-.62-1.51-1a1.76 1.76 0 0 0-.25-1 .06.06 0 0 0-.1.06 2.47 2.47 0 0 1 .21.82c-.86-.58-1.71-1.19-2.54-1.83 1.52-.7 3.32-1.31 4.35-2.7zm-5.71-2.43v.11a.06.06 0 0 0 .11 0v-.12a.07.07 0 0 0 0-.08l.11-.1a42.41 42.41 0 0 1 .12 4.6L125 48c-.08-.14-.15-.28-.23-.41a1.62 1.62 0 0 1 .1.25L123 46.43a7 7 0 0 0 2.92-1.84zm-2.6-8.17a8.15 8.15 0 0 0-1.45 2.6l-.26-.28h.11a2.12 2.12 0 0 0-.09-.43.06.06 0 0 0-.11 0 1.5 1.5 0 0 1 .07.39c-1.47-1.65-2.66-3.84-1.63-6 .25-.2.51-.39.77-.58 1.06.25 2.2.12 3.1.83.74.59.67 1.58 1.23 2.26a4.45 4.45 0 0 0-1.75 1.23zm6.9 2.14l-.08.09c-.47.56-.9 1.15-1.33 1.71-.21-.56-.54-1.08-.8-1.6a4.71 4.71 0 0 1-.32-3.47c.3-.54.9-.68 1.4-1h.9c1.13.29 1.45 1.54 2.2 2.54a8.54 8.54 0 0 0-1.97 1.75zm4.62 2.83a4.64 4.64 0 0 1-.14-3.66 3.84 3.84 0 0 1 2.15-.06 1.55 1.55 0 0 0-.21.54c-.17.87-1.19.31-1.49 1 0 .09.12.16.16.07.17-.37.56-.26.89-.27a.77.77 0 0 0 .56-.3 1.21 1.21 0 0 0 .19-.54.8.8 0 0 1 .14-.37.87.87 0 0 1 .28 0l.3.2a3.63 3.63 0 0 0 .55.49 10.73 10.73 0 0 0-3.38 2.92zm8.48-.53a8.37 8.37 0 0 0-2.73 1.71 7.37 7.37 0 0 0 .15-1 3.1 3.1 0 0 1 .65-1.65.22.22 0 0 0 0-.08 9.5 9.5 0 0 0 1.51 0c-.48.34-.81.87-1.32 1.21a.08.08 0 0 0 .09.15c.61-.34 1-1 1.58-1.38.65-.06 1.29-.12 1.9-.12l.57.18c-.81.23-1.66.69-2.4 1zm2.18 4.93a5.78 5.78 0 0 0 2.21-2.72 6.86 6.86 0 0 0 .7-2.64 10.87 10.87 0 0 0 3.77 0c-.3.5-.54 1-.81 1.58a7.5 7.5 0 0 1-5.86 3.8z" class="color7c1531 svgShape"></path><path fill="#155a7c" d="M145.56 18.84c.14-.06 0-.3-.1-.25a1.39 1.39 0 01-1 .08.05.05 0 000 .09 1.32 1.32 0 001.1.08zM157 28.85a2.68 2.68 0 00.34 1h.08c-.3-.64-.06-2-.94-2.2a.06.06 0 000 .11c.52.1.46.68.52 1.09zM157.12 30.93c0 .05 0 .13.07.07a2.58 2.58 0 00.34-.6c0-.06-.06-.11-.09 0a2.48 2.48 0 01-.32.53zM148.77 30.52a4 4 0 002.8 1.64.11.11 0 000-.22 4.25 4.25 0 01-2.7-1.53c-.06-.06-.16.04-.1.11zM152 31.35c-.32-.18-.66-.28-1-.44-.08 0-.15.08-.07.12.33.16.68.27 1 .4.07.02.13-.06.07-.08zM153 30.47a.67.67 0 01-.38-.18c-.11-.09-.23.11-.11.19a.76.76 0 00.47.16.09.09 0 00.02-.17zM121.84 34.8a.14.14 0 00-.1-.17c-1.18-.31-.87-1.26-.52-2.1 0-.07-.08-.11-.11 0-.4.68-1 1.68-.12 2.24.1.07.57.07.53.27-.08.37-.29.7-.36 1.08s.38 1 .38 1.51a.1.1 0 00.19 0 1.12 1.12 0 000-.71 1.86 1.86 0 01-.29-1c.07-.41.29-.76.4-1.12zM121.62 37.92v-.06.06zM120.77 44.54c0 .07.07.09.1 0a.86.86 0 00.14-.71c0-.19-.12-.54.12-.61s.29-.11.32-.23a.44.44 0 000-.24 3.36 3.36 0 01.07-.85.06.06 0 00-.12 0 2 2 0 00-.16.83c.08.33-.3.35-.5.46a.11.11 0 00-.05.1c-.02.47.22.77.08 1.25zM120.79 44.72s.04.02 0 0zM129.4 36.43c-1-.09-.17-1.15.17-1.36a.07.07 0 00-.07-.12c-.37.22-1.26 1.08-.63 1.54a.75.75 0 00.39.15c.49.07-.32.88-.42 1-.4.42-.07 1.08-.14 1.57 0 .11.15.16.17 0 .11-.55-.17-1.11.25-1.58a1.94 1.94 0 00.52-.87.29.29 0 00-.1-.31.36.36 0 00-.14-.02zM128.68 39.64v.17-.17zM125.7 45.66s0-.09-.08 0l-.15.21v.05c0-.03.14-.11.23-.26zM125.21 46.32l-.16-.36c0-.07-.13 0-.11 0a1.17 1.17 0 00.17.39.06.06 0 00.1-.03zM125.1 46.93s0-.02 0 0zM125 47c-.08 0-.05 0-.13.09zM130.66 48.64c.59-.07.81-.39.91-1h-.07a.92.92 0 01-.86.8c-.1.05-.08.21.02.2zM130.49 49.54a6.77 6.77 0 01-.14-.74c0-.07-.12-.08-.12 0a2.08 2.08 0 00.19.77s.08.01.07-.03zM130 50.09c.17 0 .12 0 .27-.12a.09.09 0 10-.11-.14l-.21.11a.08.08 0 00.05.15zM149.76 41c-.3 1-.06 2.43-1.23 2.77-.47.14-.79.4-.75.92 0 0 .08.06.09 0a1 1 0 01.83-.84 1.1 1.1 0 00.51-.31 5.43 5.43 0 00.69-2.51.07.07 0 00-.14-.03zM147.54 45h.07l.06-.07v-.07c-.1.14-.08.14-.13.14zM141 53.22v-.08a.05.05 0 00-.11 0v.08h.11zM140 54.36c.14-.1.29-.16.42-.27s0-.11-.06-.08-.28.15-.42.24.06.16.06.11zM96.83 34v0zM103 34.92c-.44.37-.56 1.07-1.22 1.07-.44 0-.59.44-.62.85a.17.17 0 00.08.14.12.12 0 00.14 0c.16-.08.24-.35.36-.52.89.07 1.26-.55 1.56-1.37.11-.18-.14-.28-.3-.17zM103 19.06c-.24 1.82-2.52-.37-3.07-.7a.23.23 0 00-.33.14c-1 2.5-3.21.29-4.44-1.12-.16-.18-.41 0-.43.18l-.1.88Q95 21 91.38 20.27c-.28-.78-.46-1.59-.77-2.36a2.56 2.56 0 00-1.36-1.4c-.87-.19-1.54-.34-2.29.42-3.25 3.3-7.47 2.05-11.48 1.76-.23 0-.28.36-.05.4 3.66.63 6.94 1.8 10.5.29 2.65-1.13 3.52-1.84 4.66 1.12a3.8 3.8 0 00.93 1.57 1.89 1.89 0 003.08-.47c.14-.19.74-3.24 1-2.92a7.76 7.76 0 003.3 2.27.24.24 0 00.29-.16c.73-1.93 2-1 3.29.09a.22.22 0 00.34 0c.57-1 .45-.59.46-1.78a.143.143 0 00-.28-.04zM94.44 25.47c-2.88 1.68-2.87-.79-4.54-1.88a1.24 1.24 0 00-1.15.07c-1.25 1-2.88 1.38-4.16.13a11.28 11.28 0 00-3.08-2.44c-.06 0-.11.05-.05.09 1.59.88 2.5 2.57 4 3.54 1.16.75 1.46 0 2.55-.44.74-.29 1.34-1.46 2.34 0 .32.46.51 1.24 1 1.55a2.61 2.61 0 003.16-.42c.14-.12.03-.25-.07-.2zM99.56 24.32a.09.09 0 00-.11 0c-1.12.85-2.25 2-3.59.72l-.06.06a1.72 1.72 0 002.22.45c.6-.28 1.2-1.24 1.82-.64a7.14 7.14 0 001.62 1 .07.07 0 00.07-.12 7.76 7.76 0 01-1.97-1.47zM106.71 24.85a2.3 2.3 0 01-.36 1.62.17.17 0 00.15.26 3.22 3.22 0 001.2-.42c.89-.46 2-1.21 2 .59 0 .11.17.11.17 0-.09-2.5-1.73-.88-3.13-.55.32-.77.58-2-.39-2.33-1.47-.47-1.79 1.22-2.75 2v.06a9 9 0 001.4-1.38c.44-.54 1.38-.82 1.71.15zM45.41 69.06l.11-.08c.11 0 .06-.21 0-.17s-.21.1-.22.25.09.1.11 0zM108.41 5.82a.1.1 0 000-.21 15.56 15.56 0 00-2 .07v.07a15.56 15.56 0 002 .07zM76.93 65c.07-.06 0-.19-.1-.13A20.82 20.82 0 0072.36 69a3.74 3.74 0 00-.91 2.21.77.77 0 00.14.44c.72 1-1 .26-1.4.07-2.26-.92-1.89 2.68-1.75 3.71.22 1.63-.82 1.09-1.79 2.07a10.35 10.35 0 00-2.29 3.33c-.06.15.19.25.26.11.89-1.66 2.1-3.58 4.25-3.79a.29.29 0 00.28-.28c0-.66-.92-5 .88-4.61 1 .2 1.38.6 2.4.22a.25.25 0 00.18-.24.44.44 0 00-.08-.29c-1.42-1.42-.11-2.64.85-3.72A31.11 31.11 0 0176.93 65zM120.92 18.94a7.11 7.11 0 00-.8-1.22c0-.05-.14 0-.1.07a12 12 0 00.8 1.22c.05.06.18-.01.1-.07zM123.31 21.61c.12.07.23-.12.11-.19a6.33 6.33 0 01-2-1.72h-.05a6.14 6.14 0 001.94 1.91zM123.95 22.26c.07.05.17 0 .12-.12a1.62 1.62 0 00-.31-.31.08.08 0 00-.12.12 1.61 1.61 0 00.31.31z" class="color7c1531 svgShape"></path></g></svg></g></svg>